<svg xmlns="http://www.w3.org/2000/svg" width="1280" height="440" viewBox="0 0 1280 440" role="img" aria-labelledby="title desc">
  <title id="title">RASD Technologies — Awareness everywhere.</title>
  <desc id="desc">Charcoal and sage banner with the RASD mark and an abstract network of radar sensing nodes.</desc>
  <defs>
    <radialGradient id="background" cx="85%" cy="50%" r="80%"><stop stop-color="#20362f"/><stop offset="1" stop-color="#101819"/></radialGradient>
    <linearGradient id="sweep" x1="0" y1="1" x2="1" y2="0"><stop stop-color="#c6cfac" stop-opacity=".15"/><stop offset="1" stop-color="#c6cfac" stop-opacity="0"/></linearGradient>
    <clipPath id="frame"><rect width="1280" height="440" rx="8"/></clipPath>
  </defs>
  <g clip-path="url(#frame)">
    <rect width="1280" height="440" fill="url(#background)"/>
    <path d="M64 1H1216" stroke="#c6cfac" stroke-opacity=".65"/>
    <g fill="none" stroke="#c6cfac" stroke-width="1">
      <circle cx="1070" cy="252" r="84" stroke-opacity=".24"/>
      <circle cx="1070" cy="252" r="152" stroke-opacity=".16"/>
      <circle cx="1070" cy="252" r="224" stroke-opacity=".1"/>
      <circle cx="1070" cy="252" r="296" stroke-opacity=".06"/>
      <path d="M770 252H1280M1070 0V440" stroke-opacity=".1"/>
      <path d="M887 323 1070 252 1183 117M1070 252 1241 359" stroke-opacity=".38" stroke-dasharray="3 7"/>
    </g>
    <path d="M1070 252 1155 17A250 250 0 0 1 1275 109Z" fill="url(#sweep)"/>
    <g fill="#c6cfac"><circle cx="1070" cy="252" r="5"/><circle cx="887" cy="323" r="3"/><circle cx="1241" cy="359" r="3"/></g>
    <g fill="none" stroke="#dec69b"><circle cx="1183" cy="117" r="4"/><path d="M1167 108v-7h7m18 0h7v7m0 18v7h-7m-18 0h-7v-7"/></g>
    <g transform="translate(63 46)" fill="none" stroke="#e9e7df" stroke-width="3">
      <path d="M5 29V7h12c9 0 14 6 14 13M12 29V14h5c5 0 7 3 7 6"/>
      <path d="M22 22L29 29" stroke="#c6cfac" stroke-linecap="butt"/><circle cx="17" cy="21" r="2" fill="#c6cfac" stroke="none"/>
    </g>
    <text x="113" y="74" fill="#e9e7df" font-family="Arial, Helvetica, sans-serif" font-size="22" font-weight="600" letter-spacing="5">RASD</text>
    <text x="64" y="174" fill="#b9c5b8" font-family="monospace" font-size="11" letter-spacing="3">DISTRIBUTED RADAR SENSING</text>
    <text x="60" y="252" fill="#e9e7df" font-family="Arial, Helvetica, sans-serif" font-size="76" letter-spacing="-4">Awareness</text>
    <text x="60" y="331" fill="#c6cfac" font-family="Arial, Helvetica, sans-serif" font-size="76" letter-spacing="-4">everywhere.</text>
    <path d="M64 379H710" stroke="#c6cfac" stroke-opacity=".2"/>
    <text x="64" y="408" fill="#a4b2a8" font-family="monospace" font-size="10" letter-spacing="2">HARDWARE / SIGNAL PROCESSING / CONNECTED SYSTEMS</text>
  </g>
</svg>
